<svg xmlns="http://www.w3.org/2000/svg" xmlns:xlink="http://www.w3.org/1999/xlink" viewBox="0 0 880 754" width="880" height="754" role="img" aria-label="POST screen in a terminal window"><clipPath id="win"><rect width="880" height="754" rx="12"/></clipPath><g clip-path="url(#win)">
<rect width="880" height="754" fill="#0B0C10"/><rect width="880" height="36" fill="#1E1F24"/><rect y="35" width="880" height="1" fill="#000"/>
<circle cx="22" cy="18" r="6" fill="#FF5F57"/><circle cx="42" cy="18" r="6" fill="#FEBC2E"/><circle cx="62" cy="18" r="6" fill="#28C840"/>
<text x="440.0" y="23" fill="#8B8D94" font-family="ui-monospace,'SF Mono',Menlo,Consolas,monospace" font-size="13" text-anchor="middle">bios boot</text><svg x="0" y="36" width="880" height="718" viewBox="0 0 880 718">
<defs>
<pattern id="scan" width="4" height="3" patternUnits="userSpaceOnUse"><rect width="4" height="1" fill="#000" opacity="0.38"/></pattern>
<radialGradient id="vig" cx="50%" cy="50%" r="72%"><stop offset="55%" stop-color="#000" stop-opacity="0"/><stop offset="85%" stop-color="#000" stop-opacity="0.35"/><stop offset="100%" stop-color="#000" stop-opacity="0.85"/></radialGradient>
<radialGradient id="glass" cx="35%" cy="0%" r="80%" fx="30%" fy="5%"><stop offset="0%" stop-color="#fff" stop-opacity="0.10"/><stop offset="45%" stop-color="#fff" stop-opacity="0.025"/><stop offset="70%" stop-color="#fff" stop-opacity="0"/></radialGradient><filter id="inset" x="-5%" y="-5%" width="110%" height="110%"><feGaussianBlur stdDeviation="10"/></filter>
<linearGradient id="band" x1="0" y1="0" x2="0" y2="1"><stop offset="0" stop-color="#fff" stop-opacity="0"/><stop offset="0.5" stop-color="#fff" stop-opacity="0.045"/><stop offset="1" stop-color="#fff" stop-opacity="0"/></linearGradient>
<filter id="crt" x="0" y="0" width="100%" height="100%" color-interpolation-filters="sRGB">
 <feGaussianBlur in="SourceGraphic" stdDeviation="1.6" result="glow"/>
 <feMerge><feMergeNode in="glow"/><feMergeNode in="SourceGraphic"/></feMerge>
</filter>
<clipPath id="scr"><rect x="0" y="0" width="880" height="718" rx="12"/></clipPath>
</defs>
<style>text{font-family:ui-monospace,'SF Mono','JetBrains Mono',Menlo,Consolas,'Liberation Mono',monospace;font-size:15px;white-space:pre}</style>

<g clip-path="url(#scr)">
<rect x="0" y="0" width="880" height="718" fill="#0B0C10"/>
<g filter="url(#crt)"><rect x="0" y="0" width="880" height="718" fill="#0B0C10"/><g shape-rendering="crispEdges"><rect x="196" y="48" width="4" height="4" fill="#966414"/><rect x="192" y="52" width="8" height="4" fill="#966414"/><rect x="188" y="56" width="4" height="4" fill="#966414"/><rect x="192" y="56" width="4" height="4" fill="#FFD65A"/><rect x="184" y="60" width="4" height="4" fill="#D6A032"/><rect x="188" y="60" width="4" height="4" fill="#FFD65A"/><rect x="192" y="60" width="4" height="4" fill="#966414"/><rect x="180" y="64" width="4" height="4" fill="#D6A032"/><rect x="184" y="64" width="4" height="4" fill="#FFD65A"/><rect x="188" y="64" width="4" height="4" fill="#966414"/><rect x="124" y="68" width="4" height="4" fill="#F6F4EE"/><rect x="128" y="68" width="4" height="4" fill="#100E14"/><rect x="136" y="68" width="8" height="4" fill="#100E14"/><rect x="144" y="68" width="20" height="4" fill="#EB413A"/><rect x="164" y="68" width="8" height="4" fill="#100E14"/><rect x="176" y="68" width="4" height="4" fill="#D6A032"/><rect x="180" y="68" width="4" height="4" fill="#FFD65A"/><rect x="184" y="68" width="4" height="4" fill="#D6A032"/><rect x="120" y="72" width="4" height="4" fill="#100E14"/><rect x="124" y="72" width="8" height="4" fill="#F6F4EE"/><rect x="132" y="72" width="8" height="4" fill="#100E14"/><rect x="140" y="72" width="28" height="4" fill="#EB413A"/><rect x="168" y="72" width="8" height="4" fill="#966414"/><rect x="176" y="72" width="4" height="4" fill="#FFD65A"/><rect x="180" y="72" width="4" height="4" fill="#D6A032"/><rect x="184" y="72" width="4" height="4" fill="#966414"/><rect x="116" y="76" width="8" height="4" fill="#100E14"/><rect x="124" y="76" width="4" height="4" fill="#F6F4EE"/><rect x="128" y="76" width="4" height="4" fill="#C878A0"/><rect x="132" y="76" width="4" height="4" fill="#F6F4EE"/><rect x="136" y="76" width="12" height="4" fill="#EB413A"/><rect x="148" y="76" width="12" height="4" fill="#FA821E"/><rect x="160" y="76" width="12" height="4" fill="#EB413A"/><rect x="172" y="76" width="4" height="4" fill="#F6F4EE"/><rect x="176" y="76" width="4" height="4" fill="#FFD65A"/><rect x="180" y="76" width="4" height="4" fill="#966414"/><rect x="108" y="80" width="16" height="4" fill="#100E14"/><rect x="124" y="80" width="4" height="4" fill="#F6F4EE"/><rect x="128" y="80" width="4" height="4" fill="#F0A0BE"/><rect x="132" y="80" width="8" height="4" fill="#F6F4EE"/><rect x="140" y="80" width="4" height="4" fill="#100E14"/><rect x="144" y="80" width="20" height="4" fill="#FA821E"/><rect x="164" y="80" width="4" height="4" fill="#966414"/><rect x="168" y="80" width="12" height="4" fill="#FFD65A"/><rect x="180" y="80" width="4" height="4" fill="#966414"/><rect x="184" y="80" width="4" height="4" fill="#100E14"/><rect x="192" y="80" width="4" height="4" fill="#FFD65A"/><rect x="104" y="84" width="4" height="4" fill="#100E14"/><rect x="108" y="84" width="12" height="4" fill="#EB413A"/><rect x="120" y="84" width="4" height="4" fill="#100E14"/><rect x="124" y="84" width="4" height="4" fill="#F6F4EE"/><rect x="128" y="84" width="8" height="4" fill="#F0A0BE"/><rect x="136" y="84" width="4" height="4" fill="#C878A0"/><rect x="140" y="84" width="4" height="4" fill="#F6F4EE"/><rect x="144" y="84" width="4" height="4" fill="#100E14"/><rect x="148" y="84" width="12" height="4" fill="#EB413A"/><rect x="160" y="84" width="4" height="4" fill="#966414"/><rect x="164" y="84" width="4" height="4" fill="#FFD65A"/><rect x="168" y="84" width="4" height="4" fill="#FFF4BE"/><rect x="172" y="84" width="4" height="4" fill="#FFD65A"/><rect x="176" y="84" width="4" height="4" fill="#D6A032"/><rect x="180" y="84" width="8" height="4" fill="#EB413A"/><rect x="188" y="84" width="4" height="4" fill="#100E14"/><rect x="100" y="88" width="4" height="4" fill="#100E14"/><rect x="104" y="88" width="16" height="4" fill="#EB413A"/><rect x="120" y="88" width="4" height="4" fill="#100E14"/><rect x="124" y="88" width="4" height="4" fill="#C8CAE4"/><rect x="128" y="88" width="12" height="4" fill="#F0A0BE"/><rect x="140" y="88" width="4" height="4" fill="#F6F4EE"/><rect x="144" y="88" width="4" height="4" fill="#100E14"/><rect x="148" y="88" width="12" height="4" fill="#EB413A"/><rect x="160" y="88" width="4" height="4" fill="#100E14"/><rect x="164" y="88" width="4" height="4" fill="#D6A032"/><rect x="168" y="88" width="8" height="4" fill="#FFD65A"/><rect x="176" y="88" width="4" height="4" fill="#966414"/><rect x="180" y="88" width="4" height="4" fill="#FA821E"/><rect x="184" y="88" width="8" height="4" fill="#EB413A"/><rect x="192" y="88" width="4" height="4" fill="#100E14"/><rect x="96" y="92" width="4" height="4" fill="#100E14"/><rect x="100" y="92" width="12" height="4" fill="#EB413A"/><rect x="112" y="92" width="8" height="4" fill="#FA821E"/><rect x="120" y="92" width="4" height="4" fill="#100E14"/><rect x="124" y="92" width="4" height="4" fill="#C8CAE4"/><rect x="128" y="92" width="12" height="4" fill="#F0A0BE"/><rect x="140" y="92" width="4" height="4" fill="#F6F4EE"/><rect x="144" y="92" width="4" height="4" fill="#C8CAE4"/><rect x="148" y="92" width="4" height="4" fill="#100E14"/><rect x="152" y="92" width="12" height="4" fill="#EB413A"/><rect x="164" y="92" width="4" height="4" fill="#100E14"/><rect x="168" y="92" width="8" height="4" fill="#D6A032"/><rect x="176" y="92" width="4" height="4" fill="#966414"/><rect x="180" y="92" width="8" height="4" fill="#FA821E"/><rect x="188" y="92" width="8" height="4" fill="#EB413A"/><rect x="92" y="96" width="4" height="4" fill="#100E14"/><rect x="96" y="96" width="12" height="4" fill="#EB413A"/><rect x="108" y="96" width="20" height="4" fill="#FA821E"/><rect x="128" y="96" width="4" height="4" fill="#C8CAE4"/><rect x="132" y="96" width="8" height="4" fill="#F0A0BE"/><rect x="140" y="96" width="8" height="4" fill="#F6F4EE"/><rect x="148" y="96" width="4" height="4" fill="#C8CAE4"/><rect x="152" y="96" width="4" height="4" fill="#100E14"/><rect x="156" y="96" width="12" height="4" fill="#EB413A"/><rect x="168" y="96" width="8" height="4" fill="#966414"/><rect x="176" y="96" width="4" height="4" fill="#C8CAE4"/><rect x="180" y="96" width="4" height="4" fill="#100E14"/><rect x="184" y="96" width="8" height="4" fill="#FA821E"/><rect x="192" y="96" width="4" height="4" fill="#EB413A"/><rect x="60" y="100" width="8" height="4" fill="#100E14"/><rect x="92" y="100" width="4" height="4" fill="#100E14"/><rect x="96" y="100" width="8" height="4" fill="#EB413A"/><rect x="104" y="100" width="24" height="4" fill="#FA821E"/><rect x="128" y="100" width="8" height="4" fill="#C8CAE4"/><rect x="136" y="100" width="16" height="4" fill="#F6F4EE"/><rect x="152" y="100" width="4" height="4" fill="#C8CAE4"/><rect x="156" y="100" width="4" height="4" fill="#100E14"/><rect x="160" y="100" width="12" height="4" fill="#EB413A"/><rect x="172" y="100" width="8" height="4" fill="#C8CAE4"/><rect x="180" y="100" width="4" height="4" fill="#100E14"/><rect x="184" y="100" width="8" height="4" fill="#FA821E"/><rect x="192" y="100" width="4" height="4" fill="#EB413A"/><rect x="56" y="104" width="4" height="4" fill="#100E14"/><rect x="60" y="104" width="4" height="4" fill="#EB413A"/><rect x="64" y="104" width="4" height="4" fill="#100E14"/><rect x="92" y="104" width="4" height="4" fill="#100E14"/><rect x="96" y="104" width="4" height="4" fill="#EB413A"/><rect x="100" y="104" width="16" height="4" fill="#FA821E"/><rect x="116" y="104" width="12" height="4" fill="#FEDE3C"/><rect x="128" y="104" width="4" height="4" fill="#100E14"/><rect x="132" y="104" width="24" height="4" fill="#F6F4EE"/><rect x="156" y="104" width="4" height="4" fill="#C8CAE4"/><rect x="160" y="104" width="4" height="4" fill="#100E14"/><rect x="164" y="104" width="8" height="4" fill="#EB413A"/><rect x="172" y="104" width="4" height="4" fill="#100E14"/><rect x="176" y="104" width="4" height="4" fill="#C8CAE4"/><rect x="180" y="104" width="4" height="4" fill="#100E14"/><rect x="184" y="104" width="8" height="4" fill="#FA821E"/><rect x="192" y="104" width="4" height="4" fill="#EB413A"/><rect x="196" y="104" width="8" height="4" fill="#100E14"/><rect x="56" y="108" width="4" height="4" fill="#100E14"/><rect x="60" y="108" width="4" height="4" fill="#EB413A"/><rect x="64" y="108" width="4" height="4" fill="#100E14"/><rect x="88" y="108" width="4" height="4" fill="#100E14"/><rect x="92" y="108" width="8" height="4" fill="#EB413A"/><rect x="100" y="108" width="12" height="4" fill="#FA821E"/><rect x="112" y="108" width="12" height="4" fill="#FEDE3C"/><rect x="124" y="108" width="4" height="4" fill="#100E14"/><rect x="128" y="108" width="4" height="4" fill="#C8CAE4"/><rect x="132" y="108" width="24" height="4" fill="#F6F4EE"/><rect x="156" y="108" width="8" height="4" fill="#C8CAE4"/><rect x="164" y="108" width="8" height="4" fill="#100E14"/><rect x="172" y="108" width="8" height="4" fill="#F6F4EE"/><rect x="180" y="108" width="4" height="4" fill="#C8CAE4"/><rect x="184" y="108" width="8" height="4" fill="#100E14"/><rect x="192" y="108" width="4" height="4" fill="#EB413A"/><rect x="196" y="108" width="4" height="4" fill="#100E14"/><rect x="200" y="108" width="4" height="4" fill="#EB413A"/><rect x="204" y="108" width="4" height="4" fill="#100E14"/><rect x="56" y="112" width="4" height="4" fill="#100E14"/><rect x="60" y="112" width="8" height="4" fill="#EB413A"/><rect x="68" y="112" width="8" height="4" fill="#100E14"/><rect x="80" y="112" width="8" height="4" fill="#100E14"/><rect x="88" y="112" width="12" height="4" fill="#EB413A"/><rect x="100" y="112" width="8" height="4" fill="#FA821E"/><rect x="108" y="112" width="12" height="4" fill="#FEDE3C"/><rect x="120" y="112" width="4" height="4" fill="#100E14"/><rect x="124" y="112" width="4" height="4" fill="#C8CAE4"/><rect x="128" y="112" width="56" height="4" fill="#F6F4EE"/><rect x="184" y="112" width="8" height="4" fill="#C8CAE4"/><rect x="192" y="112" width="12" height="4" fill="#EB413A"/><rect x="204" y="112" width="4" height="4" fill="#100E14"/><rect x="60" y="116" width="4" height="4" fill="#100E14"/><rect x="64" y="116" width="28" height="4" fill="#EB413A"/><rect x="92" y="116" width="12" height="4" fill="#FA821E"/><rect x="104" y="116" width="12" height="4" fill="#FEDE3C"/><rect x="116" y="116" width="4" height="4" fill="#68C44A"/><rect x="120" y="116" width="4" height="4" fill="#100E14"/><rect x="124" y="116" width="4" height="4" fill="#C8CAE4"/><rect x="128" y="116" width="56" height="4" fill="#F6F4EE"/><rect x="184" y="116" width="8" height="4" fill="#C8CAE4"/><rect x="192" y="116" width="12" height="4" fill="#100E14"/><rect x="64" y="120" width="4" height="4" fill="#100E14"/><rect x="68" y="120" width="20" height="4" fill="#EB413A"/><rect x="88" y="120" width="12" height="4" fill="#FA821E"/><rect x="100" y="120" width="8" height="4" fill="#FEDE3C"/><rect x="108" y="120" width="12" height="4" fill="#68C44A"/><rect x="120" y="120" width="4" height="4" fill="#C8CAE4"/><rect x="124" y="120" width="28" height="4" fill="#F6F4EE"/><rect x="152" y="120" width="12" height="4" fill="#100E14"/><rect x="164" y="120" width="28" height="4" fill="#F6F4EE"/><rect x="192" y="120" width="4" height="4" fill="#100E14"/><rect x="68" y="124" width="4" height="4" fill="#100E14"/><rect x="72" y="124" width="16" height="4" fill="#EB413A"/><rect x="88" y="124" width="8" height="4" fill="#FA821E"/><rect x="96" y="124" width="8" height="4" fill="#FEDE3C"/><rect x="104" y="124" width="12" height="4" fill="#68C44A"/><rect x="116" y="124" width="4" height="4" fill="#100E14"/><rect x="120" y="124" width="4" height="4" fill="#C8CAE4"/><rect x="124" y="124" width="24" height="4" fill="#F6F4EE"/><rect x="148" y="124" width="12" height="4" fill="#100E14"/><rect x="160" y="124" width="4" height="4" fill="#F6F4EE"/><rect x="164" y="124" width="4" height="4" fill="#100E14"/><rect x="168" y="124" width="24" height="4" fill="#F6F4EE"/><rect x="192" y="124" width="4" height="4" fill="#C8CAE4"/><rect x="56" y="128" width="20" height="4" fill="#100E14"/><rect x="76" y="128" width="4" height="4" fill="#EB413A"/><rect x="80" y="128" width="8" height="4" fill="#FA821E"/><rect x="88" y="128" width="12" height="4" fill="#FEDE3C"/><rect x="100" y="128" width="12" height="4" fill="#68C44A"/><rect x="112" y="128" width="4" height="4" fill="#3092E2"/><rect x="116" y="128" width="4" height="4" fill="#100E14"/><rect x="120" y="128" width="4" height="4" fill="#C8CAE4"/><rect x="124" y="128" width="24" height="4" fill="#F6F4EE"/><rect x="148" y="128" width="20" height="4" fill="#100E14"/><rect x="168" y="128" width="24" height="4" fill="#F6F4EE"/><rect x="192" y="128" width="4" height="4" fill="#C8CAE4"/><rect x="56" y="132" width="20" height="4" fill="#100E14"/><rect x="76" y="132" width="12" height="4" fill="#FA821E"/><rect x="88" y="132" width="12" height="4" fill="#FEDE3C"/><rect x="100" y="132" width="12" height="4" fill="#68C44A"/><rect x="112" y="132" width="4" height="4" fill="#3092E2"/><rect x="116" y="132" width="4" height="4" fill="#100E14"/><rect x="120" y="132" width="4" height="4" fill="#C8CAE4"/><rect x="124" y="132" width="24" height="4" fill="#F6F4EE"/><rect x="148" y="132" width="4" height="4" fill="#100E14"/><rect x="152" y="132" width="4" height="4" fill="#F6F4EE"/><rect x="156" y="132" width="12" height="4" fill="#100E14"/><rect x="168" y="132" width="24" height="4" fill="#F6F4EE"/><rect x="192" y="132" width="4" height="4" fill="#C8CAE4"/><rect x="60" y="136" width="4" height="4" fill="#100E14"/><rect x="64" y="136" width="32" height="4" fill="#FEDE3C"/><rect x="96" y="136" width="12" height="4" fill="#68C44A"/><rect x="108" y="136" width="8" height="4" fill="#3092E2"/><rect x="116" y="136" width="4" height="4" fill="#100E14"/><rect x="120" y="136" width="32" height="4" fill="#F6F4EE"/><rect x="152" y="136" width="12" height="4" fill="#100E14"/><rect x="164" y="136" width="32" height="4" fill="#F6F4EE"/><rect x="196" y="136" width="4" height="4" fill="#C8CAE4"/><rect x="200" y="136" width="4" height="4" fill="#100E14"/><rect x="64" y="140" width="4" height="4" fill="#100E14"/><rect x="68" y="140" width="24" height="4" fill="#FEDE3C"/><rect x="92" y="140" width="16" height="4" fill="#68C44A"/><rect x="108" y="140" width="8" height="4" fill="#3092E2"/><rect x="116" y="140" width="4" height="4" fill="#100E14"/><rect x="120" y="140" width="8" height="4" fill="#F6F4EE"/><rect x="128" y="140" width="12" height="4" fill="#C8CAE4"/><rect x="140" y="140" width="4" height="4" fill="#F6F4EE"/><rect x="144" y="140" width="12" height="4" fill="#F0A0BE"/><rect x="156" y="140" width="44" height="4" fill="#F6F4EE"/><rect x="200" y="140" width="4" height="4" fill="#C8CAE4"/><rect x="204" y="140" width="4" height="4" fill="#100E14"/><rect x="52" y="144" width="8" height="4" fill="#100E14"/><rect x="68" y="144" width="8" height="4" fill="#100E14"/><rect x="76" y="144" width="12" height="4" fill="#FEDE3C"/><rect x="88" y="144" width="16" height="4" fill="#68C44A"/><rect x="104" y="144" width="12" height="4" fill="#3092E2"/><rect x="116" y="144" width="4" height="4" fill="#100E14"/><rect x="120" y="144" width="8" height="4" fill="#F6F4EE"/><rect x="128" y="144" width="4" height="4" fill="#C8CAE4"/><rect x="132" y="144" width="8" height="4" fill="#46375F"/><rect x="140" y="144" width="4" height="4" fill="#F6F4EE"/><rect x="144" y="144" width="12" height="4" fill="#F0A0BE"/><rect x="156" y="144" width="48" height="4" fill="#F6F4EE"/><rect x="204" y="144" width="4" height="4" fill="#C8CAE4"/><rect x="208" y="144" width="4" height="4" fill="#100E14"/><rect x="48" y="148" width="4" height="4" fill="#100E14"/><rect x="52" y="148" width="8" height="4" fill="#68C44A"/><rect x="60" y="148" width="12" height="4" fill="#100E14"/><rect x="72" y="148" width="28" height="4" fill="#68C44A"/><rect x="100" y="148" width="16" height="4" fill="#3092E2"/><rect x="116" y="148" width="4" height="4" fill="#100E14"/><rect x="120" y="148" width="8" height="4" fill="#F6F4EE"/><rect x="128" y="148" width="8" height="4" fill="#C8CAE4"/><rect x="136" y="148" width="4" height="4" fill="#46375F"/><rect x="140" y="148" width="68" height="4" fill="#F6F4EE"/><rect x="208" y="148" width="4" height="4" fill="#100E14"/><rect x="52" y="152" width="4" height="4" fill="#100E14"/><rect x="56" y="152" width="40" height="4" fill="#68C44A"/><rect x="96" y="152" width="16" height="4" fill="#3092E2"/><rect x="112" y="152" width="4" height="4" fill="#9230AA"/><rect x="116" y="152" width="4" height="4" fill="#100E14"/><rect x="120" y="152" width="12" height="4" fill="#F6F4EE"/><rect x="132" y="152" width="12" height="4" fill="#C8CAE4"/><rect x="144" y="152" width="44" height="4" fill="#F6F4EE"/><rect x="188" y="152" width="4" height="4" fill="#46375F"/><rect x="192" y="152" width="12" height="4" fill="#F6F4EE"/><rect x="204" y="152" width="4" height="4" fill="#C8CAE4"/><rect x="208" y="152" width="4" height="4" fill="#100E14"/><rect x="56" y="156" width="4" height="4" fill="#100E14"/><rect x="60" y="156" width="36" height="4" fill="#68C44A"/><rect x="96" y="156" width="16" height="4" fill="#3092E2"/><rect x="112" y="156" width="4" height="4" fill="#9230AA"/><rect x="116" y="156" width="4" height="4" fill="#100E14"/><rect x="120" y="156" width="12" height="4" fill="#F6F4EE"/><rect x="132" y="156" width="8" height="4" fill="#C8CAE4"/><rect x="140" y="156" width="4" height="4" fill="#46375F"/><rect x="144" y="156" width="12" height="4" fill="#C8CAE4"/><rect x="156" y="156" width="48" height="4" fill="#F6F4EE"/><rect x="204" y="156" width="4" height="4" fill="#C8CAE4"/><rect x="208" y="156" width="4" height="4" fill="#100E14"/><rect x="60" y="160" width="4" height="4" fill="#100E14"/><rect x="64" y="160" width="24" height="4" fill="#68C44A"/><rect x="88" y="160" width="20" height="4" fill="#3092E2"/><rect x="108" y="160" width="8" height="4" fill="#9230AA"/><rect x="116" y="160" width="4" height="4" fill="#C8CAE4"/><rect x="120" y="160" width="16" height="4" fill="#F6F4EE"/><rect x="136" y="160" width="8" height="4" fill="#C8CAE4"/><rect x="144" y="160" width="12" height="4" fill="#46375F"/><rect x="156" y="160" width="12" height="4" fill="#C8CAE4"/><rect x="168" y="160" width="8" height="4" fill="#F6F4EE"/><rect x="176" y="160" width="4" height="4" fill="#46375F"/><rect x="180" y="160" width="24" height="4" fill="#F6F4EE"/><rect x="204" y="160" width="4" height="4" fill="#C8CAE4"/><rect x="208" y="160" width="4" height="4" fill="#100E14"/><rect x="52" y="164" width="8" height="4" fill="#100E14"/><rect x="60" y="164" width="4" height="4" fill="#3092E2"/><rect x="64" y="164" width="12" height="4" fill="#100E14"/><rect x="76" y="164" width="28" height="4" fill="#3092E2"/><rect x="104" y="164" width="12" height="4" fill="#9230AA"/><rect x="116" y="164" width="4" height="4" fill="#C8CAE4"/><rect x="120" y="164" width="20" height="4" fill="#F6F4EE"/><rect x="140" y="164" width="8" height="4" fill="#C8CAE4"/><rect x="148" y="164" width="8" height="4" fill="#9687BE"/><rect x="156" y="164" width="4" height="4" fill="#100E14"/><rect x="168" y="164" width="12" height="4" fill="#C8CAE4"/><rect x="180" y="164" width="4" height="4" fill="#46375F"/><rect x="184" y="164" width="16" height="4" fill="#F6F4EE"/><rect x="200" y="164" width="4" height="4" fill="#C8CAE4"/><rect x="204" y="164" width="4" height="4" fill="#100E14"/><rect x="48" y="168" width="12" height="4" fill="#100E14"/><rect x="60" y="168" width="36" height="4" fill="#3092E2"/><rect x="96" y="168" width="20" height="4" fill="#9230AA"/><rect x="116" y="168" width="4" height="4" fill="#C8CAE4"/><rect x="120" y="168" width="24" height="4" fill="#F6F4EE"/><rect x="144" y="168" width="8" height="4" fill="#C8CAE4"/><rect x="152" y="168" width="8" height="4" fill="#9687BE"/><rect x="176" y="168" width="24" height="4" fill="#100E14"/><rect x="52" y="172" width="20" height="4" fill="#100E14"/><rect x="72" y="172" width="16" height="4" fill="#3092E2"/><rect x="88" y="172" width="24" height="4" fill="#9230AA"/><rect x="112" y="172" width="4" height="4" fill="#C8CAE4"/><rect x="116" y="172" width="32" height="4" fill="#F6F4EE"/><rect x="148" y="172" width="8" height="4" fill="#C8CAE4"/><rect x="156" y="172" width="4" height="4" fill="#9687BE"/><rect x="52" y="176" width="4" height="4" fill="#100E14"/><rect x="56" y="176" width="16" height="4" fill="#9230AA"/><rect x="72" y="176" width="4" height="4" fill="#100E14"/><rect x="76" y="176" width="32" height="4" fill="#9230AA"/><rect x="108" y="176" width="4" height="4" fill="#100E14"/><rect x="112" y="176" width="4" height="4" fill="#C8CAE4"/><rect x="116" y="176" width="32" height="4" fill="#F6F4EE"/><rect x="148" y="176" width="12" height="4" fill="#C8CAE4"/><rect x="160" y="176" width="4" height="4" fill="#100E14"/><rect x="52" y="180" width="12" height="4" fill="#100E14"/><rect x="64" y="180" width="40" height="4" fill="#9230AA"/><rect x="104" y="180" width="8" height="4" fill="#100E14"/><rect x="112" y="180" width="44" height="4" fill="#F6F4EE"/><rect x="156" y="180" width="4" height="4" fill="#C8CAE4"/><rect x="160" y="180" width="4" height="4" fill="#100E14"/><rect x="52" y="184" width="12" height="4" fill="#100E14"/><rect x="64" y="184" width="40" height="4" fill="#9230AA"/><rect x="104" y="184" width="4" height="4" fill="#100E14"/><rect x="108" y="184" width="4" height="4" fill="#C8CAE4"/><rect x="112" y="184" width="48" height="4" fill="#F6F4EE"/><rect x="160" y="184" width="8" height="4" fill="#100E14"/><rect x="72" y="188" width="4" height="4" fill="#100E14"/><rect x="76" y="188" width="20" height="4" fill="#9230AA"/><rect x="96" y="188" width="8" height="4" fill="#100E14"/><rect x="104" y="188" width="4" height="4" fill="#C8CAE4"/><rect x="108" y="188" width="52" height="4" fill="#F6F4EE"/><rect x="160" y="188" width="4" height="4" fill="#C8CAE4"/><rect x="164" y="188" width="4" height="4" fill="#100E14"/><rect x="76" y="192" width="24" height="4" fill="#100E14"/><rect x="100" y="192" width="4" height="4" fill="#C8CAE4"/><rect x="104" y="192" width="56" height="4" fill="#F6F4EE"/><rect x="160" y="192" width="4" height="4" fill="#C8CAE4"/><rect x="164" y="192" width="4" height="4" fill="#100E14"/><rect x="100" y="196" width="4" height="4" fill="#46375F"/><rect x="104" y="196" width="56" height="4" fill="#F6F4EE"/><rect x="160" y="196" width="8" height="4" fill="#C8CAE4"/><rect x="168" y="196" width="4" height="4" fill="#100E14"/><rect x="108" y="200" width="8" height="4" fill="#100E14"/><rect x="116" y="200" width="48" height="4" fill="#F6F4EE"/><rect x="164" y="200" width="4" height="4" fill="#C8CAE4"/><rect x="168" y="200" width="4" height="4" fill="#100E14"/><rect x="116" y="204" width="8" height="4" fill="#100E14"/><rect x="124" y="204" width="40" height="4" fill="#F6F4EE"/><rect x="164" y="204" width="4" height="4" fill="#C8CAE4"/><rect x="168" y="204" width="4" height="4" fill="#100E14"/><rect x="128" y="208" width="4" height="4" fill="#100E14"/><rect x="132" y="208" width="32" height="4" fill="#F6F4EE"/><rect x="164" y="208" width="4" height="4" fill="#C8CAE4"/><rect x="168" y="208" width="4" height="4" fill="#100E14"/><rect x="140" y="212" width="32" height="4" fill="#100E14"/></g><text x="262" y="70" fill="#FFFFFF" opacity="0">Leviton Modular BIOS v1981, A Reactive Pixels Ally<set attributeName="opacity" to="1" begin="0.40s" fill="freeze"/></text><text x="262" y="92" fill="#FFFFFF" opacity="0">Copyright (C) 1981-2026, Rodney Leviton<set attributeName="opacity" to="1" begin="0.55s" fill="freeze"/></text><text x="262" y="132" fill="#C8C8C8" opacity="0">UI-DEV ACPI BIOS Revision 1981<set attributeName="opacity" to="1" begin="0.70s" fill="freeze"/></text><text x="262" y="172" fill="#C8C8C8" opacity="0">Main Processor : UI Developer, 1 beard, 0 horns<set attributeName="opacity" to="1" begin="0.85s" fill="freeze"/></text><text x="262" y="194" fill="#C8C8C8" opacity="0">Memory Testing : 0K<set attributeName="opacity" to="1" begin="1.00s" fill="freeze"/><set attributeName="opacity" to="0" begin="1.09s" fill="freeze"/></text><text x="262" y="194" fill="#C8C8C8" opacity="0">Memory Testing : 512K<set attributeName="opacity" to="1" begin="1.09s" fill="freeze"/><set attributeName="opacity" to="0" begin="1.18s" fill="freeze"/></text><text x="262" y="194" fill="#C8C8C8" opacity="0">Memory Testing : 1536K<set attributeName="opacity" to="1" begin="1.18s" fill="freeze"/><set attributeName="opacity" to="0" begin="1.27s" fill="freeze"/></text><text x="262" y="194" fill="#C8C8C8" opacity="0">Memory Testing : 2944K<set attributeName="opacity" to="1" begin="1.27s" fill="freeze"/><set attributeName="opacity" to="0" begin="1.36s" fill="freeze"/></text><text x="262" y="194" fill="#C8C8C8" opacity="0">Memory Testing : 4352K<set attributeName="opacity" to="1" begin="1.36s" fill="freeze"/><set attributeName="opacity" to="0" begin="1.45s" fill="freeze"/></text><text x="262" y="194" fill="#C8C8C8" opacity="0">Memory Testing : 5760K<set attributeName="opacity" to="1" begin="1.45s" fill="freeze"/><set attributeName="opacity" to="0" begin="1.54s" fill="freeze"/></text><text x="262" y="194" fill="#C8C8C8" opacity="0">Memory Testing : 6912K<set attributeName="opacity" to="1" begin="1.54s" fill="freeze"/><set attributeName="opacity" to="0" begin="1.63s" fill="freeze"/></text><text x="262" y="194" fill="#C8C8C8" opacity="0">Memory Testing : 7828 contributions OK<set attributeName="opacity" to="1" begin="1.63s" fill="freeze"/></text><text x="262" y="216" fill="#C8C8C8" opacity="0">Location       : Blue Mountains, Australia<set attributeName="opacity" to="1" begin="1.82s" fill="freeze"/></text><text x="262" y="238" fill="#C8C8C8" opacity="0">Online since   : February 2012<set attributeName="opacity" to="1" begin="1.97s" fill="freeze"/></text><text x="48" y="276" fill="#C8C8C8" opacity="0">Detecting Primary Master   ... TypeScript, JavaScript<set attributeName="opacity" to="1" begin="2.12s" fill="freeze"/></text><text x="48" y="298" fill="#C8C8C8" opacity="0">Detecting Primary Slave    ... React, Next.js, Vue<set attributeName="opacity" to="1" begin="2.27s" fill="freeze"/></text><text x="48" y="320" fill="#C8C8C8" opacity="0">Detecting Secondary Master ... Tailwind CSS, SCSS, Radix UI<set attributeName="opacity" to="1" begin="2.42s" fill="freeze"/></text><text x="48" y="342" fill="#C8C8C8" opacity="0">Detecting Secondary Slave  ... Motion, D3, Web Audio<set attributeName="opacity" to="1" begin="2.57s" fill="freeze"/></text><text x="48" y="364" fill="#C8C8C8" opacity="0">Detecting Test Harness     ... Vitest, Testing Library<set attributeName="opacity" to="1" begin="2.72s" fill="freeze"/></text><text x="48" y="386" fill="#C8C8C8" opacity="0">Detecting Sketchpad        ... CodePen (codepen.io/rodleviton)<set attributeName="opacity" to="1" begin="2.87s" fill="freeze"/></text><text x="48" y="426" fill="#FFFFFF" opacity="0">PCI Device Listing ...<set attributeName="opacity" to="1" begin="3.02s" fill="freeze"/></text><text x="48" y="452" fill="#4FC3D9" opacity="0"> Bus Dev  Device           Class<set attributeName="opacity" to="1" begin="3.32s" fill="freeze"/></text><rect x="48" y="460" width="784" height="1" fill="#7A7A85" opacity="0"><set attributeName="opacity" to="1" begin="3.42s" fill="freeze"/></rect><text x="48" y="480" fill="#C8C8C8" opacity="0">  00  01  eko              Mac client for self-hosted music<set attributeName="opacity" to="1" begin="3.42s" fill="freeze"/></text><text x="48" y="502" fill="#C8C8C8" opacity="0">  00  02  sparklebios      Terminal boot screen and health check<set attributeName="opacity" to="1" begin="3.62s" fill="freeze"/></text><text x="48" y="524" fill="#C8C8C8" opacity="0">  00  03  eko-web          Gapless Web Audio engine<set attributeName="opacity" to="1" begin="3.82s" fill="freeze"/></text><text x="48" y="546" fill="#C8C8C8" opacity="0">  00  04  rodleviton.com   Personal site, Next.js<set attributeName="opacity" to="1" begin="4.02s" fill="freeze"/></text><text x="48" y="586" fill="#C8C8C8" opacity="0">Turbo button engaged. It does nothing. It never did.<set attributeName="opacity" to="1" begin="4.32s" fill="freeze"/></text><text x="48" y="626" fill="#FCB827" opacity="0">Press DEL to enter SETUP<set attributeName="opacity" to="1" begin="4.62s" fill="freeze"/></text><text x="48" y="648" fill="#7A7A85" opacity="0">1981-UI-DEV-RDLV-1985PX-00<set attributeName="opacity" to="1" begin="4.77s" fill="freeze"/></text><text x="48" y="688" fill="#62BB47" opacity="0">&gt;<set attributeName="opacity" to="1" begin="5.07s" fill="freeze"/></text><rect x="62" y="675" width="9" height="16" fill="#FCB827" opacity="0"><animate attributeName="opacity" values="1;0" calcMode="discrete" dur="1s" begin="5.07s" repeatCount="indefinite"/></rect></g>
<rect x="0" y="0" width="880" height="718" fill="url(#scan)"/>
<rect x="0" y="-120" width="880" height="120" fill="url(#band)"><animateTransform attributeName="transform" type="translate" from="0 0" to="0 838" dur="7s" repeatCount="indefinite"/></rect>
<rect x="0" y="0" width="880" height="718" fill="url(#vig)"/>
<rect x="0" y="0" width="880" height="718" fill="url(#glass)"/>
</g>
</svg></g>
<rect x="0.5" y="0.5" width="879" height="753" rx="12" fill="none" stroke="#3D444D"/></svg>